# AST/ASF file generated using VICON BodyLanguage
# -----------------------------------------------
:version 1.10
:name VICON
:units
  mass 1.0
  length 0.45
  angle deg
:documentation
   .ast/.asf automatically generated from VICON data using
   VICON BodyBuilder and BodyLanguage model FoxedUp or BRILLIANT.MOD
:root
   order TX TY TZ RX RY RZ
   axis XYZ
   position 0 0 0  
   orientation 0 0 0 
:bonedata
  begin
     id 1 
     name lhipjoint
     direction 0.521452 -0.77106 0.36545 
     length 2.0933 
     axis 0 0 0  XYZ
  end
  begin
     id 2 
     name lfemur
     direction 0.34202 -0.939693 0  
     length 6.83441  
     axis 0 0 20  XYZ
    dof rx ry rz
    limits (-160.0 20.0)
           (-70.0 70.0)
           (-60.0 70.0)
  end
  begin
     id 3 
     name ltibia
     direction 0.34202 -0.939693 0   
     length 7.28749   
     axis 0 0 20   XYZ
    dof rx
    limits (-10.0 170.0)
  end
  begin
     id 4 
     name lfoot
     direction 0.100608 -0.276418 0.955757   
     length 1.52195   
     axis -90 7.62852e-016 20   XYZ
    dof rx rz
    limits (-45.0 90.0)
           (-70.0 20.0)
  end
  begin
     id 5 
     name ltoes
     direction 1.53558e-011 -4.21907e-011 1   
     length 0.770459   
     axis -90 7.62852e-016 20   XYZ
    dof rx
    limits (-90.0 20.0)
  end
  begin
     id 6 
     name rhipjoint
     direction -0.488071 -0.788702 0.373812   
     length 2.04648  
     axis 0 0 0  XYZ 
  end
  begin
     id 7 
     name rfemur
     direction -0.34202 -0.939693 0   
     length 6.92583   
     axis 0 0 -20   XYZ
    dof rx ry rz
    limits (-160.0 20.0)
           (-70.0 70.0)
           (-70.0 60.0)
  end
  begin
     id 8 
     name rtibia
     direction -0.34202 -0.939693 0   
     length 7.41043   
     axis 0 0 -20   XYZ
    dof rx
    limits (-10.0 170.0)
 end
 begin
     id 9 
     name rfoot
     direction -0.0784433 -0.215521 0.973343   
     length 1.67708  
     axis -90 -7.62852e-016 -20   XYZ
    dof rx rz
    limits (-45.0 90.0)
           (-20.0 70.0)
  end
  begin
     id 10 
     name rtoes
     direction -1.53551e-011 -4.21842e-011 1   
     length 0.849787   
     axis -90 -7.62852e-016 -20   XYZ
    dof rx
    limits (-90.0 20.0)
  end
  begin
     id 11 
     name lowerback
     direction -0.0122332 0.997575 -0.0685192   
     length 1.98724   
     axis 0 0 0   XYZ
    dof rx ry rz
    limits (-20.0 45.0)
           (-30.0 30.0)
           (-30.0 30.0)
  end
  begin
     id 12 
     name upperback
     direction 0.0182347 0.999724 -0.0148421   
     length 1.99029   
     axis 0 0 0   XYZ
    dof rx ry rz
    limits (-20.0 45.0)
           (-30.0 30.0)
           (-30.0 30.0)
  end
  begin
     id 13 
     name thorax
     direction 0.0242908 0.99956 0.0170184   
     length 1.99573   
     axis 0 0 0   XYZ
    dof rx ry rz
    limits (-20.0 45.0)
           (-30.0 30.0)
           (-30.0 30.0)
  end
  begin
     id 14 
     name lowerneck
     direction 0.0654488 0.985533 0.156338   
     length 1.4285   
     axis 0 0 0   XYZ
    dof rx ry rz
    limits (-20.0 45.0)
           (-30.0 30.0)
           (-30.0 30.0)
  end
  begin
     id 15 
     name upperneck
     direction -0.02953 0.998556 -0.0448842   
     length 1.44709   
     axis 0 0 0   XYZ
    dof rx ry rz
    limits (-20.0 45.0)
           (-30.0 30.0)
           (-30.0 30.0)
  end
  begin
     id 16
     name head
     direction -0.0155588 0.999386 -0.0314063  
     length 1.44689  
     axis 0 0 0   XYZ
    dof rx ry rz
    limits (-20.0 45.0)
           (-30.0 30.0)
           (-30.0 30.0)
  end
  begin
     id 17 
     name lclavicle
     direction 0.968229 0.236071 -0.0824755  
     length 3.60593  
     axis 0 0 0   XYZ
    dof ry rz
    limits (-20.0 10.0)
           (0.0 20.0)
  end
  begin
     id 18 
     name lhumerus
     direction 1 -4.48968e-011 7.8138e-029   
     length 5.06035   
     axis 180 -30 -90   XYZ
    dof rx ry rz
    limits (-60.0 90.0)
           (-90.0 90.0)
           (-90.0 90.0)
  end
  begin
     id 19
     name lradius
     direction 1 -4.48967e-011 9.02887e-028   
     length 3.1478   
     axis 180 -30 -90   XYZ
    dof rx
    limits (-10.0 170.0)
  end
  begin
     id 20
     name lwrist
     direction 1 -4.48961e-011 7.20928e-028   
     length 1.5739   
     axis -5.52449e-016 90 90   XYZ
    dof ry
    limits (-180.0 0.0)
 end
  begin
     id 21 
     name lhand
     direction 1 -4.48972e-011 1.44186e-027   
     length 0.606747   
     axis -9.20027e-016 90 90   XYZ
    dof rx rz
    limits (-90.0 90.0)
           (-45.0 45.0)
  end
  begin
     id 22 
     name lfingers
     direction 1 -4.48943e-011 2.88371e-027   
     length 0.489175   
     axis -1.84005e-015 90 90   XYZ
    dof rx
    limits (0.0 90.0)
  end
  begin
     id 23
     name lthumb
     direction 0.707107 -6.34917e-011 0.707107   
     length 0.70236   
     axis -90 45 2.85299e-015   XYZ
    dof rx rz
    limits (-45.0 45.0)
           (-45.0 45.0)
  end
  begin
     id 24 
     name rclavicle
     direction -0.978165 0.207816 0.0022268   
     length 3.35425  
     axis 0 0 0   XYZ 
    dof ry rz
    limits (-10.0 20.0)
           (-20.0 0.0)
  end
  begin
     id 25 
     name rhumerus
     direction -1 -4.48964e-011 -4.02159e-027  
     length 5.12273   
     axis 180 30 90   XYZ
    dof rx ry rz
    limits (-90.0 60.0)
           (-90.0 90.0)
           (-90.0 90.0)
  end
  begin
     id 26 
     name rradius
     direction -1 -4.48966e-011 1.62746e-027   
     length 3.422   
     axis 180 30 90   XYZ
    dof rx
    limits (-10.0 170.0)
  end
  begin
     id 27 
     name rwrist
     direction -1 -4.4896e-011 7.20928e-028   
     length 1.711   
     axis -5.52449e-016 -90 -90   XYZ
    dof ry
    limits (-180.0 0.0)
  end
  begin
     id 28
     name rhand
     direction -1 -4.48979e-011 1.44186e-027   
     length 0.704599   
     axis -9.20027e-016 -90 -90   XYZ
    dof rx rz
    limits (-90.0 90.0)
           (-45.0 45.0)
  end
  begin
     id 29
     name rfingers
     direction -1 -4.48962e-011 2.88371e-027   
     length 0.568066   
     axis -1.84005e-015 -90 -90   XYZ
    dof rx
    limits (0.0 90.0)
  end
  begin
     id 30
     name rthumb
     direction -0.707107 -6.34949e-011 0.707107   
     length 0.815633   
     axis -90 -45 -2.85299e-015   XYZ
    dof rx rz
    limits (-45.0 45.0)
           (-45.0 45.0)
  end
:hierarchy
  begin
    root lhipjoint rhipjoint lowerback
    lhipjoint lfemur
    lfemur ltibia
    ltibia lfoot
    lfoot ltoes
    rhipjoint rfemur
    rfemur rtibia
    rtibia rfoot
    rfoot rtoes
    lowerback upperback
    upperback thorax
    thorax lowerneck lclavicle rclavicle
    lowerneck upperneck
    upperneck head
    lclavicle lhumerus
    lhumerus lradius
    lradius lwrist
    lwrist lhand lthumb
    lhand lfingers
    rclavicle rhumerus
    rhumerus rradius
    rradius rwrist
    rwrist rhand rthumb
    rhand rfingers
  end

#!OML:ASF E:\id_vita\Project 1\Capture day 1\Session 1\Male1.ASF
:FULLY-SPECIFIED
:DEGREES
171
root -32.7829 14.8911 -5.79199 28.4807 71.5721 -17.1476
lowerback 16.2087 5.18628 -11.5656
upperback 15.5847 6.76898 -3.22334
thorax 7.3781 2.86691 2.25056
lowerneck -9.63219 -1.81325 1.89164
upperneck 28.6234 -2.63134 1.85864
head 10.7817 -0.606964 0.0625127
rclavicle -3.57812e-014 3.63652e-014
rhumerus 61.7315 1.64064 -57.2547
rradius 39.7687
rwrist 24.5515
rhand -41.7383 74.0959
rfingers 7.12502
rthumb -14.6431 44.6329
lclavicle -3.57812e-014 3.63652e-014
lhumerus 70.0571 -8.87164 42.5696
lradius 44.0404
lwrist -27.1065
lhand -33.2459 67.1689
lfingers 7.12502
lthumb -6.45163 -97.0507
rfemur -62.8553 6.5613 14.4957
rtibia 68.8417
rfoot -25.1763 -15.9599
rtoes -3.84818
lfemur -81.2647 15.2908 -30.3885
ltibia 60.934
lfoot -26.8718 3.36605
ltoes 27.6831
172
root -32.7597 15.0143 -5.78178 27.855 71.6505 -18.1333
lowerback 15.9624 5.14384 -11.3736
upperback 15.6131 6.76847 -3.17441
thorax 7.54394 2.86824 2.22385
lowerneck -9.49246 -1.98364 1.81194
upperneck 29.5566 -2.72772 1.62484
head 11.1053 -0.659275 -0.0161937
rclavicle 5.08889e-014 9.0944e-015
rhumerus 62.1284 1.614 -57.4915
rradius 39.5584
rwrist 24.3615
rhand -42.6292 72.0064
rfingers 7.12502
rthumb -15.5013 42.6078
lclavicle 5.08889e-014 9.0944e-015
lhumerus 70.4516 -8.61308 42.8006
lradius 43.368
lwrist -27.3065
lhand -33.4932 66.1557
lfingers 7.12502
lthumb -6.69031 -96.03
rfemur -62.0363 6.69635 14.872
rtibia 68.0944
rfoot -24.8291 -15.4191
rtoes -1.84012
lfemur -81.0525 15.2587 -29.9827
ltibia 60.5987
lfoot -26.9146 3.57037
ltoes 27.6549
173
root -32.7661 14.8847 -5.76224 27.4053 71.7829 -18.9291
lowerback 15.77 5.08487 -11.1844
upperback 15.6349 6.73928 -3.14594
thorax 7.68014 2.85957 2.17522
lowerneck -9.20653 -2.10513 1.64916
upperneck 30.348 -2.73909 1.43055
head 11.3519 -0.683172 -0.0560416
rclavicle 5.00937e-014 -8.24956e-015
rhumerus 62.4721 1.54942 -57.782
rradius 39.3097
rwrist 24.2099
rhand -41.9791 72.7674
rfingers 7.12502
rthumb -14.875 43.3215
lclavicle 5.00937e-014 -8.24956e-015
lhumerus 70.9538 -8.37654 43.0803
lradius 42.5186
lwrist -27.4772
lhand -33.751 65.3605
lfingers 7.12502
lthumb -6.93921 -95.2268
rfemur -61.8803 6.83253 14.9792
rtibia 67.9326
rfoot -24.5129 -15.3108
rtoes -0.496547
lfemur -81.9885 15.2329 -29.6994
ltibia 60.9536
lfoot -26.6293 3.57581
ltoes 27.5747
174
root -32.7592 14.8752 -5.74247 27.566 71.9012 -19.1264
lowerback 15.614 5.01624 -11.191
upperback 15.6396 6.67728 -3.17696
thorax 7.7791 2.82454 2.16711
lowerneck -8.86518 -2.13669 1.69904
upperneck 30.9938 -2.61196 1.04161
head 11.527 -0.64975 -0.188365
rclavicle 8.22969e-014 6.69532e-014
rhumerus 62.7699 1.47855 -58.354
rradius 39.1271
rwrist 23.9869
rhand -41.8212 72.4561
rfingers 7.12502
rthumb -14.7229 42.9989
lclavicle 8.22969e-014 6.69532e-014
lhumerus 71.4499 -8.13135 43.2326
lradius 41.69
lwrist -27.5071
lhand -34.2971 65.1736
lfingers 7.12502
lthumb -7.46636 -95.0218
rfemur -61.3569 7.00967 14.8713
rtibia 67.1961
rfoot -24.288 -15.6758
rtoes -1.22474
lfemur -82.3508 15.1151 -29.5571
ltibia 60.7889
lfoot -26.3549 3.55112
ltoes 28.0653
175
root -32.7343 14.9884 -5.7276 27.8998 71.9333 -19.0909
lowerback 15.4454 4.90442 -11.2266
upperback 15.707 6.58056 -3.30043
thorax 7.97651 2.7733 2.08309
lowerneck -8.65973 -2.15137 1.89104
upperneck 31.6562 -2.48929 0.63394
head 11.7378 -0.605841 -0.356594
rclavicle -1.51076e-014 3.20292e-014
rhumerus 63.1967 1.47771 -59.1428
rradius 38.9375
rwrist 23.662
rhand -41.3752 71.3447
rfingers 7.12502
rthumb -14.2932 41.8566
lclavicle -1.51076e-014 3.20292e-014
lhumerus 71.8437 -7.72601 43.4453
lradius 40.9393
lwrist -27.6606
lhand -34.9307 65.0019
lfingers 7.12502
lthumb -8.07787 -94.8275
rfemur -60.4719 7.09423 14.792
rtibia 66.3481
rfoot -24.1685 -16.1075
rtoes -0.337447
lfemur -82.1607 14.924 -29.3481
ltibia 60.7596
lfoot -26.5804 3.68911
ltoes 29.8032
176
root -32.7227 14.9826 -5.71068 27.8174 71.8725 -19.5058
lowerback 15.1927 4.87483 -11.18
upperback 15.8012 6.60529 -3.35768
thorax 8.23308 2.77934 2.01995
lowerneck -8.35473 -2.06517 1.60386
upperneck 32.145 -2.25752 0.66798
head 11.8771 -0.522411 -0.263368
rclavicle -3.97569e-016 -3.71852e-014
rhumerus 63.6483 1.45462 -59.7266
rradius 38.5713
rwrist 23.3812
rhand -41.2122 69.899
rfingers 7.12502
rthumb -14.1361 40.3998
lclavicle -3.97569e-016 -3.71852e-014
lhumerus 72.3429 -7.38952 43.9781
lradius 40.1414
lwrist -27.9967
lhand -35.4406 64.8033
lfingers 7.12502
lthumb -8.57 -94.6094
rfemur -59.9684 7.24878 14.656
rtibia 65.6976
rfoot -24.025 -16.1988
rtoes 0.908694
lfemur -82.5059 14.9151 -29.1351
ltibia 60.9357
lfoot -26.5418 3.81246
ltoes 28.723
177
root -32.731 14.8481 -5.6901 27.1919 71.9805 -20.5433
lowerback 15.0098 4.85949 -10.8073
upperback 15.858 6.64823 -3.33637
thorax 8.41057 2.82252 1.85734
lowerneck -7.86777 -2.11796 1.16321
upperneck 32.4732 -2.23179 0.855289
head 11.9184 -0.533225 -0.108291
rclavicle 5.40694e-014 -8.06942e-015
rhumerus 63.9213 1.30818 -60.2118
rradius 38.0979
rwrist 23.184
rhand -41.3445 69.3033
rfingers 7.12502
rthumb -14.2636 39.8131
lclavicle 5.40694e-014 -8.06942e-015
lhumerus 72.9117 -7.19207 44.7249
lradius 39.3334
lwrist -28.2913
lhand -35.8408 63.7753
lfingers 7.12502
lthumb -8.95615 -93.5652
rfemur -59.8886 7.33378 14.8102
rtibia 65.5541
rfoot -23.5857 -16.5949
rtoes 1.3748
lfemur -83.6388 14.9554 -28.8082
ltibia 61.6192
lfoot -26.3932 3.8723
ltoes 29.0184
178
root -32.7248 14.8316 -5.67102 26.4619 72.1451 -21.6632
lowerback 14.8941 4.82864 -10.3807
upperback 15.9065 6.66462 -3.3246
thorax 8.55053 2.86192 1.6524
lowerneck -7.34777 -2.25484 1.04448
upperneck 32.8001 -2.3154 0.803276
head 11.9445 -0.582898 -0.111715
rclavicle 1.43125e-014 -3.62037e-014
rhumerus 64.1089 1.10626 -60.7522
rradius 37.6753
rwrist 23.1611
rhand -41.3347 70.4302
rfingers 7.12502
rthumb -14.2541 40.9394
lclavicle 1.43125e-014 -3.62037e-014
lhumerus 73.4173 -7.01221 45.3158
lradius 38.604
lwrist -28.3666
lhand -36.1519 62.9841
lfingers 7.12502
lthumb -9.25638 -92.761
rfemur -59.4628 7.4143 15.0679
rtibia 65.1552
rfoot -22.9818 -17.2076
rtoes 1.31248
lfemur -84.2395 14.9193 -28.3759
ltibia 62.1309
lfoot -26.6248 4.06768
ltoes 29.4397
179
root -32.7165 14.8264 -5.64836 26.5425 72.0875 -21.8592
lowerback 14.87 4.88123 -10.362
upperback 15.9477 6.74828 -3.39584
thorax 8.61723 2.90655 1.56114
lowerneck -6.94375 -2.3973 0.983882
upperneck 33.2361 -2.41991 0.765989
head 12.0396 -0.631275 -0.123252
rclavicle 4.21423e-014 4.06189e-014
rhumerus 64.1608 0.90867 -61.3455
rradius 37.4809
rwrist 23.6694
rhand -41.7932 72.1046
rfingers 7.12502
rthumb -14.6959 42.6454
lclavicle 4.21423e-014 4.06189e-014
lhumerus 73.8872 -6.90477 45.6985
lradius 37.9539
lwrist -28.2007
lhand -36.3498 62.7853
lfingers 7.12502
lthumb -9.44737 -92.5536
rfemur -58.9675 7.56864 14.9016
rtibia 64.7153
rfoot -22.5912 -17.9047
rtoes 1.2992
lfemur -84.6242 14.9013 -28.2255
ltibia 62.6148
lfoot -26.9592 4.38534
ltoes 29.3308
180
root -32.708 14.8205 -5.62269 26.7924 71.9753 -21.9091
lowerback 14.8336 4.97413 -10.4274
upperback 15.9848 6.87595 -3.45413
thorax 8.67521 2.96345 1.52501
lowerneck -6.53149 -2.51966 0.711444
upperneck 33.5662 -2.53309 0.957344
head 12.0983 -0.685063 -0.0120311
rclavicle -3.06128e-014 5.60192e-014
rhumerus 64.0395 0.721222 -61.8668
rradius 37.6518
rwrist 24.3445
rhand -42.3216 73.1755
rfingers 7.12502
rthumb -15.205 43.7543
lclavicle -3.06128e-014 5.60192e-014
lhumerus 74.3674 -6.8456 46.1984
lradius 37.3585
lwrist -27.9234
lhand -36.7022 63.091
lfingers 7.12502
lthumb -9.78733 -92.8435
rfemur -58.4841 7.71334 14.6986
rtibia 63.9811
rfoot -22.0548 -18.7738
rtoes 1.13259
lfemur -84.9684 14.9499 -28.1726
ltibia 62.8159
lfoot -26.9627 4.67077
ltoes 28.4475
181
root -32.7011 14.8051 -5.59551 26.0929 72.0045 -22.9992
lowerback 14.7668 4.9998 -10.2219
upperback 16.0222 6.9367 -3.44614
thorax 8.76191 3.00609 1.42525
lowerneck -6.07067 -2.54517 0.672307
upperneck 33.6688 -2.51158 0.936373
head 12.0455 -0.682652 -0.00596179
rclavicle 1.51076e-014 -2.48139e-014
rhumerus 63.9782 0.651622 -62.2786
rradius 38.1019
rwrist 24.4773
rhand -42.2185 73.7643
rfingers 7.12502
rthumb -15.1056 44.3355
lclavicle 1.51076e-014 -2.48139e-014
lhumerus 74.6802 -6.64736 46.3785
lradius 36.891
lwrist -27.8373
lhand -37.3569 63.5209
lfingers 7.12502
lthumb -10.419 -93.2427
rfemur -58.067 7.92177 14.8705
rtibia 63.1689
rfoot -21.6184 -19.5388
rtoes 1.25714
lfemur -85.4912 15.0644 -27.7709
ltibia 63.057
lfoot -26.8242 4.86241
ltoes 27.4486
182
root -32.6934 14.7946 -5.57024 25.2276 72.1575 -24.2926
lowerback 14.7241 4.9745 -9.88884
upperback 16.0268 6.93205 -3.43258
thorax 8.80883 3.03083 1.26636
lowerneck -5.53236 -2.52153 0.886519
upperneck 33.6901 -2.40838 0.713109
head 11.9356 -0.63864 -0.110763
rclavicle 4.33351e-014 -6.45243e-014
rhumerus 63.8802 0.622157 -62.5496
rradius 38.6913
rwrist 24.2051
rhand -42.2172 74.3272
rfingers 7.12502
rthumb -15.1044 44.8983
lclavicle 4.33351e-014 -6.45243e-014
lhumerus 74.8687 -6.39794 46.5737
lradius 36.6388
lwrist -28.0493
lhand -37.6474 64.0055
lfingers 7.12502
lthumb -10.6992 -93.7131
rfemur -57.6165 8.10843 15.0573
rtibia 62.3662
rfoot -21.0235 -19.1729
rtoes 0.635105
lfemur -86.0429 15.069 -27.2585
ltibia 63.3
lfoot -26.799 5.00627
ltoes 27.7678
183
root -32.6847 14.7869 -5.54451 24.8849 72.1251 -25.0629
lowerback 14.5881 4.96772 -9.74528
upperback 16.0201 6.95402 -3.52365
thorax 8.89473 3.05616 1.1017
lowerneck -5.11651 -2.46071 0.896483
upperneck 33.9278 -2.29934 0.800854
head 11.9498 -0.578702 -0.0639535
rclavicle 7.95139e-015 -2.45188e-014
rhumerus 63.8289 0.621394 -63.2183
rradius 39.2953
rwrist 24.128
rhand -42.3952 74.9767
rfingers 7.12502
rthumb -15.2759 45.5608
lclavicle 7.95139e-015 -2.45188e-014
lhumerus 75.0008 -6.16188 46.726
lradius 36.4632
lwrist -29.0503
lhand -37.3516 63.7098
lfingers 7.12502
lthumb -10.4139 -93.4319
rfemur -57.3253 8.25085 15.145
rtibia 61.4805
rfoot -20.6105 -19.5339
rtoes 0.855168
lfemur -86.589 15.1252 -26.9658
ltibia 63.5696
lfoot -26.8126 5.1686
ltoes 27.0423
184
root -32.6784 14.7754 -5.51602 24.8352 72.0736 -25.4739
lowerback 14.5461 4.93857 -9.70308
upperback 16.0404 6.9383 -3.65859
thorax 8.96679 3.05939 0.940398
lowerneck -4.89614 -2.36818 0.974071
upperneck 34.0887 -2.16699 0.845383
head 11.9708 -0.507609 -0.0450713
rclavicle 2.8625e-014 -6.31638e-014
rhumerus 63.852 0.641647 -64.2109
rradius 39.9818
rwrist 24.1168
rhand -42.1385 75.7172
rfingers 7.12502
rthumb -15.0285 46.2826
lclavicle 2.8625e-014 -6.31638e-014
lhumerus 75.0672 -5.86226 46.6134
lradius 36.6222
lwrist -29.7348
lhand -37.0301 64.4314
lfingers 7.12502
lthumb -10.1037 -94.1688
rfemur -56.9322 8.44827 15.0763
rtibia 60.7158
rfoot -20.2495 -19.7591
rtoes 0.725603
lfemur -87.048 15.1496 -26.7145
ltibia 63.8216
lfoot -26.7292 5.32293
ltoes 26.749
